<svg xmlns="http://www.w3.org/2000/svg" xmlns:xlink="http://www.w3.org/1999/xlink" preserveAspectRatio="xMidYMid" width="2288" height="1712" viewBox="0 0 2288 1712">
  <defs>
    <style>
      .cls-1 {
        fill: #000100;
        fill-rule: evenodd;
      }
    </style>
  </defs>
  <path d="M0.000,-0.000 C762.590,-0.000 1525.410,-0.000 2288.000,-0.000 C2288.000,255.974 2288.000,512.026 2288.000,768.000 C2057.023,758.668 1825.977,749.332 1595.000,740.000 C1601.353,738.868 1604.935,736.392 1608.000,732.000 C1608.000,731.667 1608.000,731.333 1608.000,731.000 C1594.001,730.000 1579.999,729.000 1566.000,728.000 C1564.667,726.000 1563.333,724.000 1562.000,722.000 C1570.015,710.192 1565.219,645.497 1565.000,625.000 C1562.000,623.667 1559.000,622.333 1556.000,621.000 C1564.539,596.255 1593.131,610.288 1592.000,566.000 C1591.333,566.000 1590.667,566.000 1590.000,566.000 C1517.007,562.000 1443.993,558.000 1371.000,554.000 C1371.333,552.000 1371.667,550.000 1372.000,548.000 C1340.670,545.667 1309.330,543.333 1278.000,541.000 C1274.665,483.716 1275.989,412.441 1281.000,360.000 C1283.570,333.108 1284.373,296.270 1270.000,283.000 C1268.334,283.333 1266.666,283.667 1265.000,284.000 C1264.866,374.250 1268.886,443.211 1269.000,542.000 C1216.139,541.853 1169.634,548.797 1116.000,540.000 C1097.335,539.333 1078.665,538.667 1060.000,538.000 C1030.003,536.333 999.997,534.666 970.000,533.000 C951.335,547.999 932.665,563.001 914.000,578.000 C917.333,588.666 920.667,599.334 924.000,610.000 C933.862,609.626 945.373,609.251 951.000,613.000 C951.561,621.945 948.363,630.090 946.000,636.000 C945.333,662.664 944.667,689.336 944.000,716.000 C922.669,715.333 901.331,714.667 880.000,714.000 C880.000,713.667 880.000,713.333 880.000,713.000 C882.000,711.000 884.000,709.000 886.000,707.000 C886.333,706.000 886.667,705.000 887.000,704.000 C854.003,703.000 820.997,702.000 788.000,701.000 C789.333,623.674 790.667,546.326 792.000,469.000 C792.054,450.492 788.601,393.690 798.000,387.000 C793.616,381.570 794.410,377.829 795.000,368.000 C811.456,356.426 854.778,325.646 855.000,301.000 C854.333,300.667 853.667,300.333 853.000,300.000 C841.616,297.603 838.736,293.215 825.000,293.000 C821.334,296.666 817.666,300.334 814.000,304.000 C813.667,304.000 813.333,304.000 813.000,304.000 C813.182,293.113 809.184,289.496 798.000,290.000 C782.173,300.985 794.540,328.171 780.000,328.000 C785.092,315.342 786.218,303.130 779.000,292.000 C777.000,291.000 775.000,290.000 773.000,289.000 C768.595,289.459 763.405,290.403 761.000,293.000 C759.333,296.666 757.666,300.334 756.000,304.000 C756.000,303.333 756.000,302.667 756.000,302.000 C753.000,298.667 750.000,295.333 747.000,292.000 C743.334,292.000 739.666,292.000 736.000,292.000 C734.667,294.666 733.333,297.334 732.000,300.000 C725.788,296.147 722.330,297.056 717.000,301.000 C717.000,301.333 717.000,301.667 717.000,302.000 C716.499,329.710 761.526,350.770 777.000,371.000 C776.000,484.655 775.000,598.345 774.000,712.000 C724.005,709.000 673.995,706.000 624.000,703.000 C624.000,700.000 624.000,697.000 624.000,694.000 C617.334,693.000 610.666,692.000 604.000,691.000 C603.924,683.582 604.737,664.998 601.000,660.000 C600.667,670.332 600.333,680.668 600.000,691.000 C583.551,688.726 568.165,685.823 550.000,687.000 C550.333,695.999 550.667,705.001 551.000,714.000 C503.005,762.995 454.995,812.005 407.000,861.000 C391.668,866.999 376.332,873.001 361.000,879.000 C322.141,895.447 281.009,909.900 240.000,926.000 C160.008,955.997 79.992,986.003 0.000,1016.000 C0.000,677.367 0.000,338.633 0.000,-0.000 Z" class="cls-1"/>
</svg>
